{
	"asset":{
		"generator":"Khronos glTF Blender I/O v4.3.47",
		"version":"2.0"
	},
	"scene":0,
	"scenes":[
		{
			"name":"Scene",
			"nodes":[
				1,
				4
			]
		}
	],
	"nodes":[
		{
			"name":"Bubbles.obj.cleaner.materialmerger.gles"
		},
		{
			"children":[
				0
			],
			"name":"Sketchfab_model",
			"rotation":[
				-0.70710688829422,
				0,
				0,
				0.7071066498756409
			]
		},
		{
			"mesh":0,
			"name":"Object_2.001"
		},
		{
			"children":[
				2
			],
			"name":"Blossom.obj.cleaner.materialmerger.gles"
		},
		{
			"children":[
				3
			],
			"name":"Sketchfab_model.001",
			"rotation":[
				-0.70710688829422,
				0,
				0,
				0.7071066498756409
			]
		}
	],
	"materials":[
		{
			"doubleSided":true,
			"name":"Blossom",
			"pbrMetallicRoughness":{
				"baseColorTexture":{
					"index":0
				},
				"metallicFactor":0
			}
		}
	],
	"meshes":[
		{
			"name":"Object_0.001",
			"primitives":[
				{
					"attributes":{
						"POSITION":0,
						"NORMAL":1,
						"TEXCOORD_0":2
					},
					"indices":3,
					"material":0
				}
			]
		}
	],
	"textures":[
		{
			"sampler":0,
			"source":0
		}
	],
	"images":[
		{
			"mimeType":"image/png",
			"name":"Image_0",
			"uri":"Image_0.png"
		}
	],
	"accessors":[
		{
			"bufferView":0,
			"componentType":5126,
			"count":12179,
			"max":[
				0.4043017327785492,
				0.5348629951477051,
				1.5063177347183228
			],
			"min":[
				-0.44306695461273193,
				-0.3445359468460083,
				-0.012294040061533451
			],
			"type":"VEC3"
		},
		{
			"bufferView":1,
			"componentType":5126,
			"count":12179,
			"type":"VEC3"
		},
		{
			"bufferView":2,
			"componentType":5126,
			"count":12179,
			"type":"VEC2"
		},
		{
			"bufferView":3,
			"componentType":5123,
			"count":60240,
			"type":"SCALAR"
		}
	],
	"bufferViews":[
		{
			"buffer":0,
			"byteLength":146148,
			"byteOffset":0,
			"target":34962
		},
		{
			"buffer":0,
			"byteLength":146148,
			"byteOffset":146148,
			"target":34962
		},
		{
			"buffer":0,
			"byteLength":97432,
			"byteOffset":292296,
			"target":34962
		},
		{
			"buffer":0,
			"byteLength":120480,
			"byteOffset":389728,
			"target":34963
		}
	],
	"samplers":[
		{
			"magFilter":9729,
			"minFilter":9987
		}
	],
	"buffers":[
		{
			"byteLength":510208,
			"uri":"belle.bin"
		}
	]
}
